# xmcd CD database file
#
# Track frame offsets:
#	150
#	60578
#	100362
#	129812
#
# Disc length: 2416 seconds
#
# Revision: 0
# Processed by: cddbd v1.5.2PL0 Copyright (c) Steve Scherf et al.
# Submitted via: CDex 1.70beta2
#
DISCID=2b096e04
DTITLE=Lewis, George - Shadowgraph 5 (Sextet)
DYEAR=1978
DGENRE=Jazz
TTITLE0=Monads
TTITLE1=Triple Slow Mix
TTITLE2=Cycle
TTITLE3=Shadowgraph 5 (Sextet)
EXTD=YEAR: 1978
EXTT0=
EXTT1=
EXTT2=
EXTT3=
PLAYORDER=
